 <svg  version="1.0" xmlns="http://www.w3.org/2000/svg"  width="178.000000pt" height="200.000000pt" viewBox="0 0 178.000000 200.000000"  preserveAspectRatio="xMidYMid meet">  <g transform="translate(0.000000,200.000000) scale(0.100000,-0.100000)" fill="#00c8b2" stroke="none"> <path d="M107 1559 c-4 -189 -7 -524 -7 -745 l-1 -400 113 -110 c62 -60 132 -128 155 -151 l42 -42 629 -7 629 -7 6 399 c4 219 7 559 7 755 l0 357 -42 37 c-24 21 -91 84 -150 141 l-106 103 -635 7 -634 7 -6 -344z m1221 -304 c-2 -324 -3 -634 -2 -687 l1 -96 -123 116 -124 117 1 454 c0 249 -2 455 -4 457 -4 4 -658 6 -662 2 -2 -2 -7 -323 -12 -714 l-8 -712 -125 122 -126 121 4 708 3 707 590 -2 590 -3 -3 -590z m261 372 c37 -38 52 -61 47 -72 -3 -9 -6 -329 -6 -711 l-1 -694 -592 2 -592 3 2 25 c1 14 2 321 3 683 1 529 4 656 14 650 7 -5 70 -57 140 -118 l127 -110 -3 -430 c-1 -236 1 -436 5 -442 6 -10 82 -13 321 -13 l314 0 7 710 7 710 77 -69 c42 -38 100 -94 130 -124z m-777 -57 l228 0 -2 -128 -3 -127 -140 4 -140 3 -140 121 c-77 66 -144 125 -150 130 -6 6 13 7 54 3 35 -3 167 -6 293 -6z m238 -560 c0 -151 -4 -280 -8 -287 -5 -8 -52 -13 -145 -15 l-137 -3 0 286 c0 157 2 288 5 290 2 3 68 5 145 5 l140 -1 0 -275z m120 -451 c89 -86 118 -119 100 -115 -14 3 -132 6 -262 6 l-238 0 0 115 0 115 138 0 137 -1 125 -120z"/> </g> </svg> 